<svg width="146" height="18" viewBox="0 0 146 18" fill="none" xmlns="http://www.w3.org/2000/svg">
<path d="M115.92 18V0H120.973C126.783 0 130.32 3.2602 130.32 9C130.32 14.7398 126.783 18 120.973 18H115.92ZM119.089 15.2449H120.95C124.946 15.2449 127.105 13.0638 127.105 9C127.105 4.93622 124.946 2.7551 120.95 2.7551H119.089V15.2449Z" fill="#10131F"/>
<path d="M109.44 0H113.04V18H109.44V0Z" fill="#10131F"/>
<path d="M93.6001 2.80102V0H107.28V2.80102H102.029V18H98.851V2.80102H93.6001Z" fill="#10131F"/>
<path d="M89.0971 18L83.0088 10.4923V18H79.9199V0H86.8812C90.2387 0 92.6561 2.52551 92.6561 6.1301C92.6561 9.34439 90.6863 11.5714 87.8437 11.9847L92.8799 18H89.0971ZM83.0088 9.48214H86.5678C88.4256 9.48214 89.5 8.05867 89.5 6.1301C89.5 4.20153 88.4256 2.80102 86.5678 2.80102H83.0088V9.48214Z" fill="#10131F"/>
<path d="M53.962 12.2372H52.8231V18H49.6799V0H56.7635C60.18 0 62.6399 2.52551 62.6399 6.1301C62.6399 9.73469 60.18 12.2372 56.7635 12.2372H53.962ZM52.8231 2.7551V9.48214H56.4446C58.3351 9.48214 59.4284 8.05867 59.4284 6.1301C59.4284 4.20153 58.3351 2.7551 56.4446 2.7551H52.8231Z" fill="#10131F"/>
<path d="M41.9625 10.5612L39.1491 9.89541C36.4971 9.27551 35.0213 7.46173 35.0213 5.0051C35.0213 2.1352 37.0506 0 40.7864 0H47.2895L46.344 2.80102H40.8325C39.1491 2.80102 38.2036 3.60459 38.2036 4.82143C38.2036 5.92347 38.8493 6.72704 40.6711 7.16327L43.4845 7.82908C46.2056 8.47194 47.5201 10.2168 47.5201 12.7883C47.5201 16.0255 45.3985 18 41.4552 18H34.5601L35.5055 15.199H41.2707C43.3231 15.199 44.3377 14.2577 44.3377 12.949C44.3377 11.8699 43.7612 10.9974 41.9625 10.5612Z" fill="#10131F"/>
<path d="M31.7081 7.80612V10.5612H23.7753H22.6223V15.2449H32.3999V18H19.4399V0H32.1693V2.7551H22.6223V7.80612H31.7081Z" fill="#10131F"/>
<path d="M77.0682 7.80612V10.5612H69.1354H67.9824V15.2449H77.76V18H64.8V0H77.5294V2.7551H67.9824V7.80612H77.0682Z" fill="#10131F"/>
<path d="M144.748 7.80612V10.5612H136.815H135.662V15.2449H145.44V18H132.48V0H145.209V2.7551H135.662V7.80612H144.748Z" fill="#10131F"/>
<path d="M3.64258 0.105469L9 11.7178L14.3828 0.104492L14.4316 0H18L9.36328 17.6797L9.31348 17.7822H8.71094L0.126953 0.261719L0 0H3.59375L3.64258 0.105469Z" fill="#10131F"/>
</svg>
